<svg width="311" height="310" viewBox="0 0 311 310" fill="none" xmlns="http://www.w3.org/2000/svg">
<path d="M310.265 66.4536V244.452L307.995 259.772C301.947 283.309 281.887 303.4 257.89 308.295C253.482 309.193 249.088 308.958 244.763 309.993H66.887L51.5738 307.722C28.2892 301.605 9.70307 283.122 3.6553 259.772L1.38566 244.452C4.02896 186.049 -2.14336 124.491 1.38566 66.4536C3.66222 28.9636 30.2613 2.86562 67.8904 0.884108C125.69 3.07275 185.51 -1.92591 243.075 0.884108C281.029 2.73444 307.954 28.432 310.265 66.4605V66.4536ZM213.597 66.6607C183.732 69.167 150.795 80.4209 120.653 84.0387C116.259 84.5496 113.013 87.7117 113.048 92.2961C111.277 124.884 115.497 160.116 113.103 192.394C112.91 194.962 112.654 197.862 111.02 199.968C108.28 203.51 92.8772 204.877 87.6874 206.285C56.466 214.77 64.1122 250.99 93.4169 249.271C111.47 248.214 123.51 240.247 124.825 221.364C126.873 191.862 123.261 159.985 124.763 130.228C125.143 126.486 128.645 126.065 131.565 125.312C155.541 119.098 182.334 117.241 206.588 111.352C209.266 111.248 210.94 113.209 210.989 115.771L210.67 179.635C208.857 185.579 191.351 186.546 185.469 188.224C174.833 191.268 165.603 198.007 165.741 210.179C166.094 241.497 223.153 234.993 222.724 205.491V73.6754C222.136 67.365 219.534 66.1636 213.59 66.6607H213.597Z" fill="#301876"/>
</svg>
