<svg width="76" height="76" viewBox="0 0 76 76" fill="none" xmlns="http://www.w3.org/2000/svg">
<g clip-path="url(#clip0_2046_174)">
<path d="M24.478 0.292816C32.8362 -0.0747538 42.6274 -0.0978379 50.9874 0.232442C65.3546 0.800667 74.2278 6.17749 75.508 21.3935C76.2467 30.1779 76.023 41.9028 75.6874 50.8044C75.1422 65.2515 69.8489 74.217 54.5299 75.5062C45.7491 76.2449 34.0259 76.0211 25.1261 75.6855C8.18057 75.0463 0.94636 68.2081 0.252061 51.1578C-0.0853224 42.8759 -0.0853224 33.0403 0.252061 24.7584C0.930379 8.11478 7.82365 1.02441 24.478 0.292816ZM27.1344 7.02095C10.7695 7.58562 7.48982 11.3235 6.98019 27.5907C6.77066 34.2566 6.77066 41.6578 6.98019 48.322C7.50402 65.0473 11.1424 68.4353 27.7808 68.9538C35.6702 69.2007 45.2998 69.3605 53.1129 68.7745C67.1072 67.7251 68.5739 60.5406 68.9593 48.1462C69.2061 40.2585 69.3677 30.6182 68.7799 22.8069C67.7358 8.92628 60.6898 7.3459 48.3327 6.95702C41.4909 6.74216 33.9797 6.78123 27.1344 7.0174V7.02095Z" fill="#E9FFD9"/>
<path d="M37.7604 18.522C63.3873 18.2397 63.6021 57.3229 38.0374 57.417C12.6608 57.5111 12.2915 18.8026 37.7604 18.522ZM36.5156 25.4384C20.6479 27.0418 22.3792 51.8111 39.1134 50.5273C55.3487 49.2825 53.6653 23.7053 36.5156 25.4384Z" fill="#E9FFD9"/>
<path d="M57.0427 13.3866C63.2808 12.2998 64.5877 20.7167 59.4257 22.1461C53.0705 23.9076 51.515 14.349 57.0427 13.3866Z" fill="#E9FFD9"/>
</g>
<defs>
<clipPath id="clip0_2046_174">
<rect width="76" height="76" fill="white"/>
</clipPath>
</defs>
</svg>
