<svg width="310" height="310" viewBox="0 0 310 310" fill="none" xmlns="http://www.w3.org/2000/svg">
<path d="M259.494 40.6011C287.889 66.3367 305.884 103.588 309.377 141.803C316.753 222.425 257.674 296.2 178.134 308.275C90.9516 321.523 7.04432 256.65 0.444966 168.097C-4.42368 102.69 30.9346 41.1676 90.9273 13.8378C147.483 -11.9301 213.622 -0.980393 259.494 40.6011ZM248.083 121.199C244.694 117.953 236.736 114.271 232.239 112.167C185.575 90.3241 129.682 88.2442 79.799 98.2067C75.173 99.1292 67.9428 99.9547 63.98 102.205C54.9058 107.36 54.5096 121.029 63.7293 126.216C70.4418 129.996 76.2001 126.759 82.8237 125.512C126.908 117.233 177.01 117.581 218.491 136.446C222.931 138.461 227.169 141.229 231.471 143.284C247.007 150.714 259.607 132.254 248.075 121.207L248.083 121.199ZM74.1863 149.435C68.978 154.873 71.0403 164.35 77.8014 167.579C82.9936 170.056 86.3418 167.733 91.3236 166.794C129.723 159.567 170.969 160.369 206.764 177.728C209.837 179.217 213.088 182.155 216.558 182.495C225.68 183.377 231.277 177.315 229.619 168.202C228.737 163.363 222.235 160.207 218.256 158.127C179.816 138.081 130.976 135.774 89.0996 144.336C84.239 145.332 77.7691 145.688 74.1782 149.435H74.1863ZM122.476 180.965C113.499 181.41 104.708 182.737 95.9739 184.388C90.4987 185.424 82.8642 185.44 80.0821 191.146C76.1677 199.19 82.6943 206.223 91.1942 205.098C93.3859 204.807 96.6775 203.496 98.9258 203.124C127.515 198.349 160.358 198.786 187.33 210.504C194.471 213.604 203.966 222.004 210.711 213.814C213.493 210.431 213.404 205.39 210.888 201.901C208.834 199.069 199.946 194.869 196.436 193.299C173.759 183.166 147.281 179.727 122.485 180.949L122.476 180.965Z" fill="#301876"/>
</svg>
