<svg width="111" height="78" viewBox="0 0 111 78" fill="none" xmlns="http://www.w3.org/2000/svg">
<g clip-path="url(#clip0_2046_178)">
<path d="M40.5051 0.357667C56.9637 -0.0397376 77.167 -0.535877 93.3597 1.52026C103.07 2.75197 107.593 5.83001 109.422 15.7429C111.409 26.5025 112.169 58.5738 107.733 68.0868C102.742 78.7872 80.3381 77.3728 69.9853 77.6122C54.1939 77.9751 29.4679 78.8217 14.4151 75.8004C-0.677028 72.7668 0.403798 55.2119 0.167444 42.7665C-0.0590615 30.7851 -1.67907 6.34096 12.5785 2.46564C20.1418 0.411971 32.4543 0.550199 40.5051 0.357667ZM44.4936 22.4445V55.439L73.0554 38.822L44.4936 22.4445Z" fill="#E9FFD9"/>
</g>
<defs>
<clipPath id="clip0_2046_178">
<rect width="111" height="78" fill="white"/>
</clipPath>
</defs>
</svg>
