<svg width="78" height="75" viewBox="0 0 78 75" fill="none" xmlns="http://www.w3.org/2000/svg">
<g clip-path="url(#clip0_2046_108)">
<path d="M18.7294 43.2358C18.5707 43.3743 19.2139 44.1508 19.3601 44.3271C24.8194 51.1014 30.9093 57.435 36.214 64.3352C36.544 64.7675 37.7678 66.3205 37.9057 66.673C37.9892 66.8871 38.5489 69.0193 38.5573 69.1452C38.5615 69.2585 38.1145 71.1221 38.0477 71.3445C36.9826 74.845 31.8742 76.0286 29.0631 74.0517C27.3422 72.8429 24.8945 69.1158 23.4493 67.4243C16.5449 59.3447 8.734 50.8621 2.29318 42.4761C0.0376369 39.5422 -0.964826 37.4604 1.21971 33.9683L28.4157 1.5071C34.2885 -3.11403 41.289 3.79458 36.8406 9.97288C31.8826 16.8605 24.7609 23.6726 19.3559 30.4049C19.1179 30.7029 18.7294 31.1016 18.7252 31.4962H73.6936C73.8064 31.4962 75.4145 32.4825 75.6568 32.6672C78.7143 34.9883 78.7978 39.5674 75.7737 41.9724C75.5189 42.1739 73.8147 43.2358 73.6936 43.2358H18.7294Z" fill="white"/>
</g>
<defs>
<clipPath id="clip0_2046_108">
<rect width="78" height="75" fill="white"/>
</clipPath>
</defs>
</svg>
