<svg width="76" height="76" viewBox="0 0 76 76" fill="none" xmlns="http://www.w3.org/2000/svg">
<g clip-path="url(#clip0_2046_60)">
<path d="M24.478 0.292816C32.8362 -0.0747538 42.6275 -0.0978379 50.9874 0.232442C65.3546 0.800667 74.2278 6.17749 75.5081 21.3935C76.2468 30.1779 76.0231 41.9028 75.6874 50.8044C75.1423 65.2515 69.8489 74.217 54.53 75.5062C45.7491 76.2449 34.026 76.0211 25.1261 75.6855C8.18063 75.0463 0.946421 68.2081 0.252122 51.1578C-0.0852613 42.8759 -0.0852613 33.0403 0.252122 24.7584C0.93044 8.11478 7.82371 1.02441 24.478 0.292816ZM27.1345 7.02095C10.7696 7.58562 7.48988 11.3235 6.98025 27.5907C6.77072 34.2566 6.77072 41.6578 6.98025 48.322C7.50408 65.0473 11.1425 68.4353 27.7808 68.9538C35.6703 69.2007 45.2999 69.3605 53.113 68.7745C67.1073 67.7251 68.574 60.5406 68.9593 48.1462C69.2061 40.2585 69.3677 30.6182 68.78 22.8069C67.7359 8.92628 60.6899 7.3459 48.3328 6.95702C41.491 6.74216 33.9798 6.78123 27.1345 7.0174V7.02095Z" fill="white"/>
<path d="M37.7603 18.522C63.3872 18.2397 63.6021 57.3229 38.0373 57.417C12.6607 57.5111 12.2914 18.8026 37.7603 18.522ZM36.5155 25.4384C20.6478 27.0418 22.3792 51.8111 39.1134 50.5273C55.3486 49.2825 53.6652 23.7053 36.5155 25.4384Z" fill="white"/>
<path d="M57.0426 13.3866C63.2806 12.2998 64.5876 20.7167 59.4256 22.1461C53.0704 23.9076 51.5149 14.349 57.0426 13.3866Z" fill="white"/>
</g>
<defs>
<clipPath id="clip0_2046_60">
<rect width="76" height="76" fill="white"/>
</clipPath>
</defs>
</svg>
