<svg width="311" height="310" viewBox="0 0 311 310" fill="none" xmlns="http://www.w3.org/2000/svg">
<g clip-path="url(#clip0_2112_27)">
<path d="M160.901 0L172.845 0.911534C261.036 10.8886 322.908 92.656 308.423 180.808C298.034 244.024 247.999 295.259 185.156 307.201C93.6772 324.581 8.5958 259.061 1.19494 166.661C1.02771 164.575 1.31591 162.203 0.5865 160.156C0.71815 156.741 0.408595 153.27 0.5865 149.862C4.85979 67.9449 68.1478 3.04438 150.618 0H160.901ZM152.368 73.9625C87.5181 76.8181 51.6524 151.425 90.9019 203.728C127.867 252.99 204.498 244.32 229.615 188.214C254.176 133.358 212.173 71.3276 152.368 73.9589V73.9625Z" fill="white"/>
<path d="M150.251 81.2254C212.233 77.2944 252.031 146.211 216.197 197.489C185.277 241.737 118.723 238.607 91.6917 192.034C64.5007 145.182 96.3706 84.6436 150.251 81.2254ZM127.629 114.742V195.274L195.991 153.044L127.629 114.742Z" fill="white"/>
</g>
<defs>
<clipPath id="clip0_2112_27">
<rect width="310" height="310" fill="white" transform="translate(0.529297)"/>
</clipPath>
</defs>
</svg>
